# xmcd
#
# Track frame offsets: 
#        150
#        14334
#        25783
#        33878
#        44590
#        59432
#        70991
#        80708
#        90049
#        102517
#        115400
#        130673
#        141691
#        152082
#        166862
#        182488
#
# Disc length: 2689 seconds
#
# Revision: 0
# Processed by: cddbd v1.5.2PL0 Copyright (c) Steve Scherf et al.
# Submitted via: ExactAudioCopy v0.99pb5
#
DISCID=d30a7f10
DTITLE=R.L. Burnside - First Recordings [MFSL Mono]
DYEAR=2004
DGENRE=Blues
TTITLE0=Just Like A Bird Without A Feather
TTITLE1=Goin' Down South
TTITLE2=Come On In
TTITLE3=Little Babe
TTITLE4=Rollin' And Tumblin'
TTITLE5=Jumper On The Line
TTITLE6=Skinny Woman
TTITLE7=Poor Black Mattie
TTITLE8=Long Haired Doney
TTITLE9=Peaches
TTITLE10=Walkin' Blues
TTITLE11=Hobo Blues
TTITLE12=My Time Ain't Long
TTITLE13=Sat Down On My Bed And Cried
TTITLE14=Come On In (Live - 1988)
TTITLE15=Rollin' And Tumblin' (Remix - 1988)
EXTD=
EXTT0=
EXTT1=
EXTT2=
EXTT3=
EXTT4=
EXTT5=
EXTT6=
EXTT7=
EXTT8=
EXTT9=
EXTT10=
EXTT11=
EXTT12=
EXTT13=
EXTT14=
EXTT15=
PLAYORDER=
